<svg xmlns="http://www.w3.org/2000/svg" xmlns:xlink="http://www.w3.org/1999/xlink" version="1.1" x="0px" y="0px" viewBox="0 0 24 30" style="enable-background:new 0 0 24 24;" xml:space="preserve"><g><path d="M11.956,0.083c-6.081,0-11.111,4.578-11.829,10.468h2.446c0.699-4.549,4.64-8.044,9.383-8.044   c5.234,0,9.493,4.259,9.493,9.493s-4.259,9.493-9.493,9.493c-4.742,0-8.682-3.494-9.382-8.043h0.003l-1.225-1.198l-1.223,1.197   H0.127v0.001l0,0l0,0c0.718,5.89,5.748,10.467,11.828,10.467c6.571,0,11.917-5.346,11.917-11.917S18.527,0.083,11.956,0.083z"/><path d="M12,0.084c-0.015,0-0.029-0.001-0.044-0.001c-6.081,0-11.111,4.578-11.829,10.468h2.446c0.7-4.549,4.64-8.044,9.383-8.044   c0.015,0,0.029,0,0.044,0.001V0.084z"/><path d="M12,0.084v2.424C17.214,2.531,21.449,6.78,21.449,12h2.424C23.873,5.444,18.551,0.108,12,0.084z"/><path d="M12,21.492v2.424c6.551-0.024,11.873-5.36,11.873-11.916h-2.424C21.449,17.22,17.214,21.469,12,21.492z"/></g><text x="0" y="39" fill="#000000" font-size="5px" font-weight="bold" font-family="'Helvetica Neue', Helvetica, Arial-Unicode, Arial, Sans-serif">Created by myiconfinder</text><text x="0" y="44" fill="#000000" font-size="5px" font-weight="bold" font-family="'Helvetica Neue', Helvetica, Arial-Unicode, Arial, Sans-serif">from the Noun Project</text></svg>